<svg viewBox="0 0 92 27" xmlns="http://www.w3.org/2000/svg"><path d="M66.663 7.735v18.781h-2.672V7.736h2.672zm-26.367 0v2.613H31.74v4.767h8.48v2.607h-8.48v6.19h8.48v2.604H29.064V7.736h11.231zm42.776 0l8.83 18.781h-2.896l-2.843-5.893h-7.25l-2.817 5.893h-2.969l8.952-18.78h.993zm-79.431 0l7.087 14.172L17.74 7.735h.93l2.73 18.782h-2.65l-1.647-11.81-5.893 11.81h-.994L4.25 14.61l-1.64 11.907H0L2.711 7.735h.93zm46.61 0v16.202h6.964v2.58h-9.629V7.735h2.666zm32.311 5.237l-2.41 5.06h4.82l-2.41-5.06zM86.347 0l1.597 1.321c-.802 1.591-1.89 2.39-3.266 2.39-.468 0-1.235-.233-2.297-.698-.77-.381-1.338-.57-1.714-.57-.458 0-.926.43-1.392 1.295l-1.644-1.384.362-.512a6.95 6.95 0 01.676-.832c.222-.233.438-.422.67-.562a2.15 2.15 0 01.703-.313c.244-.063.506-.1.789-.1.653 0 1.418.223 2.27.647.875.445 1.437.665 1.69.665.467 0 .99-.451 1.556-1.347z" fill="#252525" fill-rule="evenodd"></path></svg>